# xmcd
#
# Track frame offsets:
# 150
# 10448
# 23303
# 40993
# 66258
# 83095
# 99395
# 125118
# 148538
# 163038
# 178768
# 200328
#
# Disc length: 3011 seconds
#
#
# Revision: 0
# Processed by: cddbd v1.5.2PL0 Copyright (c) Steve Scherf et al.
# Submitted via: Nero 7, 11, 10, 0 
#
DISCID=9d0bc10c
DTITLE=Brian Templeton - Live At Bluesiana Cafe CD 2
DYEAR=2007
DGENRE=Blues
TTITLE0=Evil Love
TTITLE1=Let Me Down Easy
TTITLE2=Money In Her Pocket
TTITLE3=I Don't Want No Woman
TTITLE4=The Shelf
TTITLE5=And Like That
TTITLE6=Learn To Treat Me Right
TTITLE7=Everything I Do Is Wrong
TTITLE8=My Baby's Gone
TTITLE9=Sick And Tired
TTITLE10=I Know You Know
TTITLE11=I Feel So Good
EXTD=
EXTT0=Evil Love
EXTT1=Let Me Down Easy
EXTT2=Money In Her Pocket
EXTT3=I Don't Want No Woman
EXTT4=The Shelf
EXTT5=And Like That
EXTT6=Learn To Treat Me Right
EXTT7=Everything I Do Is Wrong
EXTT8=My Baby's Gone
EXTT9=Sick And Tired
EXTT10=I Know You Know
EXTT11=I Feel So Good
PLAYORDER=
